<svg xmlns="http://www.w3.org/2000/svg" version="1.1" xmlns:xlink="http://www.w3.org/1999/xlink" xmlns:svgjs="http://svgjs.dev/svgjs" width="2000" height="1500" viewBox="0 0 2000 1500"><rect width="2000" height="1500" fill="#000000"></rect><g transform="matrix(0.75,0,0,0.75,249.67638483964993,0.05154664723022506)"><svg viewBox="0 0 343 343" data-background-color="#000000" preserveAspectRatio="xMidYMid meet" height="1999" width="2000" xmlns="http://www.w3.org/2000/svg" xmlns:xlink="http://www.w3.org/1999/xlink"><g id="tight-bounds" transform="matrix(1,0,0,1,0.0740000000000407,0.07400000000001228)"><svg viewBox="0 0 342.85155851775386 342.85155851775386" height="342.85155851775386" width="342.85155851775386"><g><svg></svg></g><g><svg viewBox="0 0 342.85155851775386 342.85155851775386" height="342.85155851775386" width="342.85155851775386"><g><path d="M0 171.426c0-94.676 76.75-171.426 171.426-171.426 94.676 0 171.426 76.75 171.426 171.426 0 94.676-76.75 171.426-171.426 171.426-94.676 0-171.426-76.75-171.426-171.426zM171.426 338.628c92.343 0 167.202-74.859 167.202-167.202 0-92.343-74.859-167.202-167.202-167.202-92.343 0-167.202 74.859-167.202 167.202 0 92.343 74.859 167.202 167.202 167.202z" data-fill-palette-color="tertiary" fill="#6b7280" stroke="transparent"></path><ellipse rx="164.56874808852186" ry="164.56874808852186" cx="171.42577925887693" cy="171.42577925887693" fill="#6b7280" stroke="transparent" stroke-width="0" fill-opacity="1" data-fill-palette-color="tertiary"></ellipse></g><g transform="matrix(1,0,0,1,64.84655864529837,148.0088082356823)"><svg viewBox="0 0 213.1584412271571 46.83394204638926" height="46.83394204638926" width="213.1584412271571"><g><svg viewBox="0 0 213.1584412271571 46.83394204638926" height="46.83394204638926" width="213.1584412271571"><g><svg viewBox="0 0 213.1584412271571 46.83394204638926" height="46.83394204638926" width="213.1584412271571"><g><svg viewBox="0 0 213.1584412271571 46.83394204638926" height="46.83394204638926" width="213.1584412271571"><g id="textblocktransform"><svg viewBox="0 0 213.1584412271571 46.83394204638926" height="46.83394204638926" width="213.1584412271571" id="textblock"><g><svg viewBox="0 0 213.1584412271571 46.83394204638926" height="46.83394204638926" width="213.1584412271571"><g transform="matrix(1,0,0,1,0,0)"><svg width="213.1584412271571" viewBox="2.35 -40.95 241.43 53.050000000000004" height="46.83394204638926" data-palette-color="#ffffff"><path d="M2.35 0L2.35-2.45 6.1-2.75 6.1-23.9 2.5-24.8 2.5-27.5 9.4-28.4 9.5-28.4 10.6-27.5 10.6-26.6 10.45-22.7 10.6-22.7Q11.1-23.55 12.4-24.9 13.7-26.25 15.75-27.38 17.8-28.5 20.2-28.5L20.2-28.5Q21.2-28.5 21.85-28.25L21.85-28.25 21.85-22.65Q21.5-22.9 20.73-23.13 19.95-23.35 19-23.35L19-23.35Q14.85-23.35 11.3-20.8L11.3-20.8 11.3-2.8 17.65-2.4 17.65 0 2.35 0ZM37.45 0.55Q31.4 0.55 28.22-3.4 25.05-7.35 25.05-13.95L25.05-13.95Q25.05-18.3 26.7-21.6 28.35-24.9 31.32-26.7 34.3-28.5 38.1-28.5L38.1-28.5Q42.75-28.5 45.32-25.93 47.9-23.35 48.05-18.55L48.05-18.55Q48.05-15.5 47.7-13.9L47.7-13.9 30.5-13.9Q30.6-8.95 32.8-5.93 35-2.9 39.05-2.9L39.05-2.9Q41.05-2.9 43.22-3.63 45.4-4.35 46.6-5.35L46.6-5.35 47.55-3.15Q46.1-1.65 43.25-0.55 40.4 0.55 37.45 0.55L37.45 0.55ZM30.55-16.55L42.55-16.55Q42.7-17.6 42.7-18.7L42.7-18.7Q42.65-21.95 41.32-23.83 40-25.7 37.15-25.7L37.15-25.7Q34.25-25.7 32.52-23.6 30.8-21.5 30.55-16.55L30.55-16.55ZM51.75-13.7Q51.75-17.85 53.37-21.2 55-24.55 58.17-26.53 61.35-28.5 65.8-28.5L65.8-28.5Q67.95-28.5 69.5-28.1 71.05-27.7 73.2-27L73.2-27 73-19.3 69.75-19.3 68.65-24.4Q68.34-25.8 64.84-25.8L64.84-25.8Q61.35-25.8 59.32-22.98 57.3-20.15 57.3-14.95L57.3-14.95Q57.3-9.05 59.57-5.98 61.85-2.9 65.5-2.9L65.5-2.9Q67.59-2.9 69.47-3.55 71.34-4.2 72.7-5.1L72.7-5.1 73.65-3.1Q72.3-1.7 69.67-0.58 67.05 0.55 64.34 0.55L64.34 0.55Q60.25 0.55 57.42-1.3 54.6-3.15 53.17-6.38 51.75-9.6 51.75-13.7L51.75-13.7ZM83.89-32.75Q82.29-32.75 81.49-33.65 80.69-34.55 80.69-35.95L80.69-35.95Q80.69-37.55 81.67-38.6 82.64-39.65 84.34-39.65L84.34-39.65Q86.04-39.65 86.84-38.75 87.64-37.85 87.64-36.45L87.64-36.45Q87.64-34.75 86.67-33.75 85.69-32.75 83.94-32.75L83.94-32.75 83.89-32.75ZM81.89-2.9L81.89-23.9 78.09-24.8 78.09-27.45 85.84-28.4 85.94-28.4 87.09-27.5 87.09-2.85 91.09-2.45 91.09 0 77.84 0 77.84-2.45 81.89-2.9ZM121.69-14.85Q121.69-10.6 119.94-7.08 118.19-3.55 114.94-1.5 111.69 0.55 107.34 0.55L107.34 0.55Q106.14 0.55 104.74 0.35 103.34 0.15 102.49-0.15L102.49-0.15 102.64 4.05 102.64 9.1 107.84 9.65 107.84 12.1 93.89 12.1 93.89 9.65 97.49 9.1 97.49-23.9 93.84-24.8 93.84-27.5 100.94-28.4 101.04-28.4 102.09-27.5 102.09-24.55Q103.59-26.2 105.82-27.35 108.04-28.5 110.79-28.5L110.79-28.5Q113.74-28.5 116.22-27.05 118.69-25.6 120.19-22.55 121.69-19.5 121.69-14.85L121.69-14.85ZM108.74-25Q106.84-25 105.19-24.2 103.54-23.4 102.64-22.45L102.64-22.45 102.64-3.6Q102.99-3 104.42-2.53 105.84-2.05 107.54-2.05L107.54-2.05Q111.39-2.05 113.77-5.1 116.14-8.15 116.14-14.3L116.14-14.3Q116.14-19.7 114.07-22.35 111.99-25 108.74-25L108.74-25ZM138.34 0.55Q132.29 0.55 129.11-3.4 125.94-7.35 125.94-13.95L125.94-13.95Q125.94-18.3 127.59-21.6 129.24-24.9 132.21-26.7 135.19-28.5 138.99-28.5L138.99-28.5Q143.64-28.5 146.21-25.93 148.79-23.35 148.94-18.55L148.94-18.55Q148.94-15.5 148.59-13.9L148.59-13.9 131.39-13.9Q131.49-8.95 133.69-5.93 135.89-2.9 139.94-2.9L139.94-2.9Q141.94-2.9 144.11-3.63 146.29-4.35 147.49-5.35L147.49-5.35 148.44-3.15Q146.99-1.65 144.14-0.55 141.29 0.55 138.34 0.55L138.34 0.55ZM131.44-16.55L143.44-16.55Q143.59-17.6 143.59-18.7L143.59-18.7Q143.54-21.95 142.21-23.83 140.89-25.7 138.04-25.7L138.04-25.7Q135.14-25.7 133.41-23.6 131.69-21.5 131.44-16.55L131.44-16.55ZM155.94-2.85L155.94-37.3 151.74-37.85 151.74-40 159.89-40.95 159.99-40.95 161.09-40.2 161.09-28.6 160.89-24.35Q162.49-25.8 165.29-27.1 168.09-28.4 170.94-28.4L170.94-28.4Q174.09-28.4 175.84-27.2 177.59-26 178.29-23.53 178.99-21.05 178.99-16.85L178.99-16.85 178.99-2.9 182.49-2.45 182.49 0 170.54 0 170.54-2.45 173.79-2.9 173.79-16.9Q173.79-19.85 173.39-21.53 172.99-23.2 171.89-24.03 170.79-24.85 168.59-24.85L168.59-24.85Q166.79-24.85 164.74-23.95 162.69-23.05 161.14-21.85L161.14-21.85 161.14-2.9 164.59-2.45 164.59 0 152.94 0 152.94-2.45 155.94-2.85ZM208.93 0.45Q207.53 0.45 206.86-0.1 206.18-0.65 206.18-1.9L206.18-1.9 206.18-3.6Q204.53-1.95 202.06-0.7 199.58 0.55 197.08 0.55L197.08 0.55Q192.43 0.55 190.48-1.95 188.53-4.45 188.53-10.2L188.53-10.2 188.53-24.7 185.73-25.5 185.73-27.7 192.73-28.35 192.78-28.35 193.73-27.75 193.73-10.6Q193.73-7.7 194.16-6.08 194.58-4.45 195.66-3.68 196.73-2.9 198.78-2.9L198.78-2.9Q200.78-2.9 202.53-3.75 204.28-4.6 205.58-5.75L205.58-5.75 205.58-24.7 201.98-25.5 201.98-27.7 209.58-28.35 209.63-28.35 210.78-27.75 210.78-2.55 213.78-2.55 213.73-0.3Q212.33 0.05 211.31 0.25 210.28 0.45 208.93 0.45L208.93 0.45ZM215.43-37.9L215.43-40 223.43-40.95 223.53-40.95 224.68-40.2 224.68-25.15Q226.18-26.6 228.25-27.55 230.33-28.5 232.88-28.5L232.88-28.5Q235.88-28.5 238.36-27.05 240.83-25.6 242.31-22.55 243.78-19.5 243.78-14.85L243.78-14.85Q243.78-10.55 242-7.05 240.23-3.55 236.93-1.5 233.63 0.55 229.28 0.55L229.28 0.55Q225.83 0.55 222.98-0.13 220.13-0.8 219.53-1.35L219.53-1.35 219.53-37.35 215.43-37.9ZM230.83-24.95Q228.93-24.95 227.31-24.08 225.68-23.2 224.68-22.1L224.68-22.1 224.68-3.7Q224.98-3 226.41-2.58 227.83-2.15 229.63-2.15L229.63-2.15Q233.48-2.15 235.83-5.25 238.18-8.35 238.18-14.3L238.18-14.3Q238.18-19.65 236.13-22.3 234.08-24.95 230.83-24.95L230.83-24.95Z" opacity="1" transform="matrix(1,0,0,1,0,0)" fill="#ffffff" class="wordmark-text-0" data-fill-palette-color="quaternary" id="text-0"></path></svg></g></svg></g></svg></g></svg></g><g></g></svg></g></svg></g></svg></g></svg></g><defs></defs></svg><rect width="342.85155851775386" height="342.85155851775386" fill="none" stroke="none" visibility="hidden"></rect></g></svg></g></svg>